# xmcd
#
# Track frame offsets:
#	150
#	18260
#	50316
#	69580
#	96056
#	111312
#	131946
#	148140
#	174191
#	192562
#	213147
#	232262
#	247659
#	264984
#	279997
#	306641
#	328086
#
# Disc length: 4664 seconds
#
# Revision: 0
# Processed by: cddbd v1.5.1PL0 Copyright (c) Steve Scherf et al.
# Submitted via: EasyCDDAExtractor 4.6.9.1
#
DISCID=fc123611
DTITLE=Los Autenticos Decadentes - Sigue tu camino (Versiones y Remixes)
DYEAR=2003
DGENRE=Ska
TTITLE0=Sigue tu camino (Todos tus Muertos)
TTITLE1=Vivire por siempre (Garage paraiso remix de Babasonicos and Dr. Trincado
TTITLE1=)
TTITLE2=Pendeviejo (Diego Chapa Blanco de Pericos)
TTITLE3=Osito de peluche de Taiwan (Juanchi Baleiron de Pericos)
TTITLE4=Angel y Demonio (Mariano Franceschelli)
TTITLE5=Los amigos del campeon (Rafa Franceschelli)
TTITLE6=La prima lejana (Turf)
TTITLE7=Pioropos (Mosca Lorenzo)
TTITLE8=Bichiluz en los 80's (Gaston Bernardou)
TTITLE9=Perro celestial (Estimulation)
TTITLE10=Sigue el mix (Zorro-Troca-Americo)
TTITLE11=Como la abeja y la flor (Pata negra mix de  Dr. Trincado)
TTITLE12=Osito de peluche de Taiwan (BPS Remix)
TTITLE13=Bichiloop rmx (Zort)
TTITLE14=Perro celestial (Pedro Pearson and Sebolla Paradisi)
TTITLE15=El Jeep (de la prima lejana, Mix de Babylon Rasta and Mr. Granja)
TTITLE16=Osito de peluche de Taiwan (Lic. Mariano Lopez)
EXTD=YEAR: 2003
EXTT0=
EXTT1=
EXTT2=
EXTT3=
EXTT4=
EXTT5=
EXTT6=
EXTT7=
EXTT8=
EXTT9=
EXTT10=
EXTT11=
EXTT12=
EXTT13=
EXTT14=
EXTT15=
EXTT16=
PLAYORDER=
